<mxfile host="app.diagrams.net" modified="2023-12-04T09:03:30.264Z" agent="Mozilla/5.0 (Windows NT 10.0; Win64; x64) AppleWebKit/537.36 (KHTML, like Gecko) Chrome/119.0.0.0 Safari/537.36" etag="InLeUzabq92tEU6ytOOH" version="22.1.5" type="device">
  <diagram id="43ky6n1268hu07oklX-h" name="Page-1">
    <mxGraphModel dx="2350" dy="836" grid="1" gridSize="10" guides="1" tooltips="1" connect="1" arrows="1" fold="1" page="1" pageScale="1" pageWidth="850" pageHeight="1100" math="0" shadow="0">
      <root>
        <mxCell id="0" />
        <mxCell id="1" parent="0" />
        <mxCell id="iLyT19Dri9KDHwKTjhFe-1" value="&lt;p style=&quot;margin:0px;margin-top:4px;margin-left:5px;text-align:left;&quot;&gt;&lt;b&gt;sd&lt;/b&gt;  Interaction2&lt;/p&gt;" style="html=1;shape=mxgraph.sysml.package;overflow=fill;labelX=95;align=left;spacingLeft=5;verticalAlign=top;spacingTop=-3;" parent="1" vertex="1">
          <mxGeometry x="-30" y="50" width="940" height="750" as="geometry" />
        </mxCell>
        <mxCell id="iLyT19Dri9KDHwKTjhFe-2" value="" style="shape=umlLifeline;perimeter=lifelinePerimeter;whiteSpace=wrap;html=1;container=1;dropTarget=0;collapsible=0;recursiveResize=0;outlineConnect=0;portConstraint=eastwest;newEdgeStyle={&quot;curved&quot;:0,&quot;rounded&quot;:0};participant=umlActor;" parent="1" vertex="1">
          <mxGeometry x="110" y="110" width="20" height="640" as="geometry" />
        </mxCell>
        <mxCell id="iLyT19Dri9KDHwKTjhFe-11" value="" style="html=1;points=[[0,0,0,0,5],[0,1,0,0,-5],[1,0,0,0,5],[1,1,0,0,-5]];perimeter=orthogonalPerimeter;outlineConnect=0;targetShapes=umlLifeline;portConstraint=eastwest;newEdgeStyle={&quot;curved&quot;:0,&quot;rounded&quot;:0};" parent="iLyT19Dri9KDHwKTjhFe-2" vertex="1">
          <mxGeometry x="5" y="80" width="10" height="80" as="geometry" />
        </mxCell>
        <mxCell id="iLyT19Dri9KDHwKTjhFe-25" value="" style="html=1;points=[[0,0,0,0,5],[0,1,0,0,-5],[1,0,0,0,5],[1,1,0,0,-5]];perimeter=orthogonalPerimeter;outlineConnect=0;targetShapes=umlLifeline;portConstraint=eastwest;newEdgeStyle={&quot;curved&quot;:0,&quot;rounded&quot;:0};" parent="iLyT19Dri9KDHwKTjhFe-2" vertex="1">
          <mxGeometry x="5" y="400" width="10" height="80" as="geometry" />
        </mxCell>
        <mxCell id="-sAgIn4Xq7SSFZUueNHf-11" value="" style="html=1;points=[[0,0,0,0,5],[0,1,0,0,-5],[1,0,0,0,5],[1,1,0,0,-5]];perimeter=orthogonalPerimeter;outlineConnect=0;targetShapes=umlLifeline;portConstraint=eastwest;newEdgeStyle={&quot;curved&quot;:0,&quot;rounded&quot;:0};" parent="iLyT19Dri9KDHwKTjhFe-2" vertex="1">
          <mxGeometry x="5" y="530" width="10" height="80" as="geometry" />
        </mxCell>
        <mxCell id="iLyT19Dri9KDHwKTjhFe-3" value="Loket Registrasi Ulang" style="shape=umlLifeline;perimeter=lifelinePerimeter;whiteSpace=wrap;html=1;container=1;dropTarget=0;collapsible=0;recursiveResize=0;outlineConnect=0;portConstraint=eastwest;newEdgeStyle={&quot;curved&quot;:0,&quot;rounded&quot;:0};" parent="1" vertex="1">
          <mxGeometry x="240" y="110" width="100" height="640" as="geometry" />
        </mxCell>
        <mxCell id="iLyT19Dri9KDHwKTjhFe-12" value="" style="html=1;points=[[0,0,0,0,5],[0,1,0,0,-5],[1,0,0,0,5],[1,1,0,0,-5]];perimeter=orthogonalPerimeter;outlineConnect=0;targetShapes=umlLifeline;portConstraint=eastwest;newEdgeStyle={&quot;curved&quot;:0,&quot;rounded&quot;:0};" parent="iLyT19Dri9KDHwKTjhFe-3" vertex="1">
          <mxGeometry x="45" y="80" width="10" height="510" as="geometry" />
        </mxCell>
        <mxCell id="iLyT19Dri9KDHwKTjhFe-4" value="Sistem" style="shape=umlLifeline;perimeter=lifelinePerimeter;whiteSpace=wrap;html=1;container=1;dropTarget=0;collapsible=0;recursiveResize=0;outlineConnect=0;portConstraint=eastwest;newEdgeStyle={&quot;curved&quot;:0,&quot;rounded&quot;:0};" parent="1" vertex="1">
          <mxGeometry x="425" y="110" width="100" height="640" as="geometry" />
        </mxCell>
        <mxCell id="iLyT19Dri9KDHwKTjhFe-18" value="" style="html=1;points=[[0,0,0,0,5],[0,1,0,0,-5],[1,0,0,0,5],[1,1,0,0,-5]];perimeter=orthogonalPerimeter;outlineConnect=0;targetShapes=umlLifeline;portConstraint=eastwest;newEdgeStyle={&quot;curved&quot;:0,&quot;rounded&quot;:0};" parent="iLyT19Dri9KDHwKTjhFe-4" vertex="1">
          <mxGeometry x="45" y="150" width="10" height="440" as="geometry" />
        </mxCell>
        <mxCell id="iLyT19Dri9KDHwKTjhFe-5" value="Database" style="shape=umlLifeline;perimeter=lifelinePerimeter;whiteSpace=wrap;html=1;container=1;dropTarget=0;collapsible=0;recursiveResize=0;outlineConnect=0;portConstraint=eastwest;newEdgeStyle={&quot;curved&quot;:0,&quot;rounded&quot;:0};" parent="1" vertex="1">
          <mxGeometry x="600" y="110" width="100" height="640" as="geometry" />
        </mxCell>
        <mxCell id="iLyT19Dri9KDHwKTjhFe-19" value="" style="html=1;points=[[0,0,0,0,5],[0,1,0,0,-5],[1,0,0,0,5],[1,1,0,0,-5]];perimeter=orthogonalPerimeter;outlineConnect=0;targetShapes=umlLifeline;portConstraint=eastwest;newEdgeStyle={&quot;curved&quot;:0,&quot;rounded&quot;:0};" parent="iLyT19Dri9KDHwKTjhFe-5" vertex="1">
          <mxGeometry x="45" y="210" width="10" height="370" as="geometry" />
        </mxCell>
        <mxCell id="-sAgIn4Xq7SSFZUueNHf-1" value="" style="html=1;points=[[0,0,0,0,5],[0,1,0,0,-5],[1,0,0,0,5],[1,1,0,0,-5]];perimeter=orthogonalPerimeter;outlineConnect=0;targetShapes=umlLifeline;portConstraint=eastwest;newEdgeStyle={&quot;curved&quot;:0,&quot;rounded&quot;:0};" parent="iLyT19Dri9KDHwKTjhFe-5" vertex="1">
          <mxGeometry x="50" y="255" width="10" height="40" as="geometry" />
        </mxCell>
        <mxCell id="-sAgIn4Xq7SSFZUueNHf-2" value="Validasi Data Salah" style="html=1;align=left;spacingLeft=2;endArrow=block;rounded=0;edgeStyle=orthogonalEdgeStyle;curved=0;rounded=0;" parent="iLyT19Dri9KDHwKTjhFe-5" target="-sAgIn4Xq7SSFZUueNHf-1" edge="1">
          <mxGeometry relative="1" as="geometry">
            <mxPoint x="55" y="235" as="sourcePoint" />
            <Array as="points">
              <mxPoint x="85" y="265" />
            </Array>
          </mxGeometry>
        </mxCell>
        <mxCell id="HWjF53VC10SKJVI0cCVo-1" value="" style="html=1;points=[[0,0,0,0,5],[0,1,0,0,-5],[1,0,0,0,5],[1,1,0,0,-5]];perimeter=orthogonalPerimeter;outlineConnect=0;targetShapes=umlLifeline;portConstraint=eastwest;newEdgeStyle={&quot;curved&quot;:0,&quot;rounded&quot;:0};" vertex="1" parent="iLyT19Dri9KDHwKTjhFe-5">
          <mxGeometry x="50" y="450" width="10" height="40" as="geometry" />
        </mxCell>
        <mxCell id="HWjF53VC10SKJVI0cCVo-2" value="Validasi Data Berhasil" style="html=1;align=left;spacingLeft=2;endArrow=block;rounded=0;edgeStyle=orthogonalEdgeStyle;curved=0;rounded=0;" edge="1" target="HWjF53VC10SKJVI0cCVo-1" parent="iLyT19Dri9KDHwKTjhFe-5">
          <mxGeometry relative="1" as="geometry">
            <mxPoint x="55" y="430" as="sourcePoint" />
            <Array as="points">
              <mxPoint x="85" y="460" />
            </Array>
          </mxGeometry>
        </mxCell>
        <mxCell id="iLyT19Dri9KDHwKTjhFe-15" value="Isi No Pendaftaran" style="html=1;verticalAlign=bottom;endArrow=block;curved=0;rounded=0;entryX=0;entryY=0;entryDx=0;entryDy=5;entryPerimeter=0;" parent="1" source="iLyT19Dri9KDHwKTjhFe-11" target="iLyT19Dri9KDHwKTjhFe-12" edge="1">
          <mxGeometry width="80" relative="1" as="geometry">
            <mxPoint x="170" y="230" as="sourcePoint" />
            <mxPoint x="250" y="230" as="targetPoint" />
          </mxGeometry>
        </mxCell>
        <mxCell id="iLyT19Dri9KDHwKTjhFe-17" value="No Pendaftaran" style="html=1;verticalAlign=bottom;endArrow=block;curved=0;rounded=0;entryX=0;entryY=0;entryDx=0;entryDy=5;entryPerimeter=0;" parent="1" source="iLyT19Dri9KDHwKTjhFe-12" target="iLyT19Dri9KDHwKTjhFe-18" edge="1">
          <mxGeometry width="80" relative="1" as="geometry">
            <mxPoint x="330" y="280" as="sourcePoint" />
            <mxPoint x="410" y="280" as="targetPoint" />
          </mxGeometry>
        </mxCell>
        <mxCell id="iLyT19Dri9KDHwKTjhFe-20" value="Data Pendaftaran" style="html=1;verticalAlign=bottom;endArrow=block;curved=0;rounded=0;entryX=0;entryY=0;entryDx=0;entryDy=5;entryPerimeter=0;" parent="1" source="iLyT19Dri9KDHwKTjhFe-18" target="iLyT19Dri9KDHwKTjhFe-19" edge="1">
          <mxGeometry width="80" relative="1" as="geometry">
            <mxPoint x="490" y="325" as="sourcePoint" />
            <mxPoint x="610" y="340" as="targetPoint" />
          </mxGeometry>
        </mxCell>
        <mxCell id="iLyT19Dri9KDHwKTjhFe-23" value="No Pendaftaran Salah" style="html=1;verticalAlign=bottom;endArrow=open;dashed=1;endSize=8;curved=0;rounded=0;" parent="1" target="iLyT19Dri9KDHwKTjhFe-18" edge="1">
          <mxGeometry relative="1" as="geometry">
            <mxPoint x="645" y="460" as="sourcePoint" />
            <mxPoint x="485.0000000000002" y="460" as="targetPoint" />
          </mxGeometry>
        </mxCell>
        <mxCell id="iLyT19Dri9KDHwKTjhFe-24" value="Mo Pendataran Salah" style="html=1;verticalAlign=bottom;endArrow=open;dashed=1;endSize=8;curved=0;rounded=0;" parent="1" edge="1">
          <mxGeometry relative="1" as="geometry">
            <mxPoint x="470" y="489" as="sourcePoint" />
            <mxPoint x="295" y="489" as="targetPoint" />
          </mxGeometry>
        </mxCell>
        <mxCell id="iLyT19Dri9KDHwKTjhFe-26" value="No Pendaftaran Salah" style="html=1;verticalAlign=bottom;endArrow=open;dashed=1;endSize=8;curved=0;rounded=0;" parent="1" source="iLyT19Dri9KDHwKTjhFe-12" target="iLyT19Dri9KDHwKTjhFe-25" edge="1">
          <mxGeometry relative="1" as="geometry">
            <mxPoint x="280" y="560" as="sourcePoint" />
            <mxPoint x="160" y="560" as="targetPoint" />
          </mxGeometry>
        </mxCell>
        <mxCell id="HWjF53VC10SKJVI0cCVo-5" value="Registrasi Ulang Berhasil" style="html=1;verticalAlign=bottom;endArrow=open;dashed=1;endSize=8;curved=0;rounded=0;" edge="1" parent="1">
          <mxGeometry relative="1" as="geometry">
            <mxPoint x="640" y="640" as="sourcePoint" />
            <mxPoint x="480" y="640" as="targetPoint" />
          </mxGeometry>
        </mxCell>
        <mxCell id="HWjF53VC10SKJVI0cCVo-6" value="Registrasi Ulang Berhasil" style="html=1;verticalAlign=bottom;endArrow=open;dashed=1;endSize=8;curved=0;rounded=0;" edge="1" parent="1" target="iLyT19Dri9KDHwKTjhFe-12">
          <mxGeometry relative="1" as="geometry">
            <mxPoint x="470" y="660" as="sourcePoint" />
            <mxPoint x="390" y="660" as="targetPoint" />
          </mxGeometry>
        </mxCell>
        <mxCell id="HWjF53VC10SKJVI0cCVo-7" value="Registrasi Ulang Berhasil" style="html=1;verticalAlign=bottom;endArrow=open;dashed=1;endSize=8;curved=0;rounded=0;exitX=0;exitY=1;exitDx=0;exitDy=-5;exitPerimeter=0;" edge="1" parent="1" source="iLyT19Dri9KDHwKTjhFe-12" target="-sAgIn4Xq7SSFZUueNHf-11">
          <mxGeometry relative="1" as="geometry">
            <mxPoint x="270" y="690" as="sourcePoint" />
            <mxPoint x="190" y="690" as="targetPoint" />
          </mxGeometry>
        </mxCell>
      </root>
    </mxGraphModel>
  </diagram>
</mxfile>
